<svg width="96" height="174" viewBox="0 0 96 174" fill="none" xmlns="http://www.w3.org/2000/svg">
<path d="M0.137939 0.160034V48.845L34.4339 139.821C34.4379 137.736 34.4419 136.61 34.4459 134.227L34.5039 97.493L37.2169 105.17C52.3209 147.908 60.4349 170.822 60.4829 170.87C60.5139 170.902 62.7999 171.04 65.5609 171.177C73.9269 171.592 84.2949 172.481 92.1599 173.459C93.9809 173.685 95.5479 173.801 95.6429 173.716C95.7069 173.658 95.7499 154.506 95.7609 127.489L61.6249 29.349L61.6089 38.636L61.5409 76.997L58.3849 68.092C55.3009 59.391 53.2419 53.572 40.8529 18.542C38.7603 12.6234 36.666 6.70542 34.5699 0.788033L34.3449 0.160034H0.137939V0.160034Z" fill="url(#paint0_radial_216_13)"/>
<defs>
<radialGradient id="paint0_radial_216_13" cx="0" cy="0" r="1" gradientUnits="userSpaceOnUse" gradientTransform="translate(4622.55 4707.53) scale(6735.49 6735.56)">
<stop/>
<stop offset="1" stop-opacity="0"/>
</radialGradient>
</defs>
</svg>
